<svg width="831" height="179" viewBox="0 0 831 179" fill="none" xmlns="http://www.w3.org/2000/svg">
<path d="M42.54 166.58V156.02L44.96 153.6H51.692L54.024 155.932V157.34H52.352V156.482L50.944 155.096H45.708L44.212 156.57V166.03L45.708 167.504H50.856L52.352 166.03V162.466H48.876V160.97H54.024V166.58L51.604 169H44.96L42.54 166.58ZM56.7816 166.976V160.068L58.8056 158.044H64.4376L66.4616 160.068V166.976L64.4376 169H58.8056L56.7816 166.976ZM63.7336 167.548L64.8336 166.47V160.574L63.7336 159.496H59.5096L58.4096 160.574V166.47L59.5096 167.548H63.7336ZM69.6584 153.292H71.2864V169H69.6584V153.292ZM74.4847 166.976V160.068L76.5087 158.044H80.7327L82.5367 159.628V153.292H84.1647V169H82.5807V166.998L80.5787 169H76.5087L74.4847 166.976ZM80.2267 167.548L82.5367 165.238V161.344L80.4247 159.496H77.2127L76.1127 160.574V166.47L77.2127 167.548H80.2267ZM92.6175 166.976V165.568H94.2675V166.426L95.3235 167.504H100.604L101.704 166.382V162.928L100.604 161.85H94.6855L92.6615 159.826V155.624L94.6855 153.6H101.154L103.178 155.624V157.054H101.55V156.174L100.45 155.096H95.4115L94.3115 156.174V159.276L95.4115 160.354H101.33L103.354 162.378V166.932L101.286 169H94.6415L92.6175 166.976ZM107.105 166.976V159.474H105.125V158.044H107.149V154.48H108.733V158.044H112.165V159.474H108.733V166.47L109.833 167.57H112.165V169H109.129L107.105 166.976ZM114.357 167.196V164.402L116.161 162.62H122.013V160.53L120.913 159.452H117.173L116.073 160.53V161.432H114.445V160.068L116.469 158.044H121.595L123.619 160.068V169H122.057V167.064L120.033 169H116.161L114.357 167.196ZM119.703 167.592L122.013 165.37V164.028H116.865L115.985 164.886V166.734L116.865 167.592H119.703ZM126.804 158.044H128.388V160.376L130.72 158.044H134.086L136.11 160.068V169H134.482V160.574L133.382 159.496H131.16L128.432 162.224V169H126.804V158.044ZM139.088 166.976V160.068L141.112 158.044H145.336L147.14 159.628V153.292H148.768V169H147.184V166.998L145.182 169H141.112L139.088 166.976ZM144.83 167.548L147.14 165.238V161.344L145.028 159.496H141.816L140.716 160.574V166.47L141.816 167.548H144.83ZM151.74 167.196V164.402L153.544 162.62H159.396V160.53L158.296 159.452H154.556L153.456 160.53V161.432H151.828V160.068L153.852 158.044H158.978L161.002 160.068V169H159.44V167.064L157.416 169H153.544L151.74 167.196ZM157.086 167.592L159.396 165.37V164.028H154.248L153.368 164.886V166.734L154.248 167.592H157.086ZM164.187 158.044H165.771V160.002L167.729 158.044H170.567V159.496H168.147L165.815 161.828V169H164.187V158.044ZM171.873 166.976V160.068L173.897 158.044H178.121L179.925 159.628V153.292H181.553V169H179.969V166.998L177.967 169H173.897L171.873 166.976ZM177.615 167.548L179.925 165.238V161.344L177.813 159.496H174.601L173.501 160.574V166.47L174.601 167.548H177.615Z" fill="#231F20"/>
<path d="M226.78 64.1284V69.1581C226.864 66.5175 226.822 65.1763 226.78 64.1284ZM104.251 93.5521C104.251 93.5521 101.057 92.63 97.6534 91.6241C92.2328 90.0313 87.9468 85.8819 86.3501 80.6007C85.3416 77.2895 84.3751 74.1878 84.3751 74.1878C84.2911 73.9783 84.081 73.8106 83.8709 73.8106C83.6608 73.8106 83.4087 73.9783 83.3667 74.1878C83.3667 74.1878 82.4002 77.2895 81.3917 80.6007C79.753 85.8819 75.509 90.0313 70.0884 91.6241C66.6848 92.63 63.4913 93.5521 63.4913 93.5521C63.2812 93.636 63.1131 93.8036 63.1131 94.0551C63.1131 94.3066 63.2812 94.4742 63.4913 94.5581C63.4913 94.5581 66.6848 95.4802 70.0884 96.4861C75.509 98.0789 79.795 102.228 81.3917 107.51C82.4002 110.821 83.3667 113.922 83.3667 113.922C83.4507 114.132 83.6608 114.3 83.8709 114.3C84.081 114.3 84.3331 114.132 84.3751 113.922C84.3751 113.922 85.3416 110.821 86.3501 107.51C87.9888 102.228 92.2328 98.0789 97.6534 96.4861C101.057 95.4802 104.251 94.5581 104.251 94.5581C104.461 94.4742 104.629 94.2647 104.629 94.0551C104.629 93.8455 104.461 93.636 104.251 93.5521ZM217.872 35.3754C215.015 34.6209 207.871 34.4533 204.384 34.7886C204.342 34.7886 204.258 34.7886 204.216 34.7886C201.863 35.082 200.014 37.0939 200.014 39.5249V47.6981L199.888 73.8944V75.068V75.9901C199.762 78.0439 199.804 81.8581 199.047 83.5347C197.703 86.5106 195.938 88.8158 193.669 89.4026C193.08 89.6122 185.055 89.6122 181.315 89.6541H165.095C164.675 89.6541 164.297 89.6541 163.919 89.6541C156.355 89.5703 149.17 84.8759 143.707 77.499L142.152 75.068L96.897 4.69428C92.569 -0.419242 85.4256 -0.2935 79.837 0.251383C77.1057 0.502867 74.7106 1.17349 72.3575 3.05963C61.7265 17.2266 52.146 32.8186 42.1452 47.74C28.3627 68.4037 14.2021 88.7739 0.839772 109.815C-0.504862 114.928 2.01633 119.12 6.21831 119.581C11.2187 120.126 20.6311 120.126 25.6315 119.581C27.4383 119.371 29.3292 118.659 30.7579 117.192L82.6523 39.3572C83.8709 38.2255 85.0475 39.0219 85.8878 40.3632C98.914 59.0149 110.343 80.9779 123.622 99.2105C132.362 111.198 144.337 118.659 157.448 119.581C165.599 120.168 184.634 120.168 192.786 119.581C203.459 118.826 212.704 112.372 218.839 102.647C223.335 95.564 226.108 86.6782 226.57 76.9961C226.738 73.5172 226.822 71.0024 226.864 69.1162V48.9555C226.654 42.5427 223.082 36.7166 217.956 35.3754H217.872Z" fill="url(#paint0_linear_1566_391)"/>
<path d="M352.246 166.47V156.13L354.776 153.6H362.432L364.918 156.086V158.44H361.926V157.186L360.892 156.152H356.36L355.238 157.274V165.326L356.36 166.448H360.936L362.014 165.37V162.972H358.714V160.42H364.918V166.47L362.388 169H354.776L352.246 166.47ZM367.443 166.976V158.044H369.071V166.47L370.171 167.548H372.371L375.099 164.82V158.044H376.727V169H375.143V166.668L372.811 169H369.467L367.443 166.976ZM379.926 155.536V154.568L380.586 153.908H381.554L382.214 154.568V155.536L381.554 156.196H380.586L379.926 155.536ZM380.256 158.044H381.884V169H380.256V158.044ZM385.187 166.976V160.068L387.211 158.044H391.435L393.239 159.628V153.292H394.867V169H393.283V166.998L391.281 169H387.211L385.187 166.976ZM390.929 167.548L393.239 165.238V161.344L391.127 159.496H387.915L386.815 160.574V166.47L387.915 167.548H390.929ZM397.949 166.976V160.068L399.973 158.044H405.495L407.541 160.068V164.006H399.577V166.47L400.677 167.548H404.791L405.891 166.47V165.634H407.519V166.976L405.495 169H399.973L397.949 166.976ZM405.913 162.598V160.574L404.813 159.496H400.677L399.577 160.574V162.598H405.913ZM410.281 166.976V160.068L412.305 158.044H416.529L418.333 159.628V153.292H419.961V169H418.377V166.998L416.375 169H412.305L410.281 166.976ZM416.023 167.548L418.333 165.238V161.344L416.221 159.496H413.009L411.909 160.574V166.47L413.009 167.548H416.023ZM428.413 153.6H439.545V156.13H431.405V160.024H438.907V162.51H431.405V166.47H439.545V169H428.413V153.6ZM440.655 158.044H442.327L445.583 167.372H445.671L448.927 158.044H450.599L446.573 169H444.681L440.655 158.044ZM452.154 166.976V160.068L454.178 158.044H459.81L461.834 160.068V166.976L459.81 169H454.178L452.154 166.976ZM459.106 167.548L460.206 166.47V160.574L459.106 159.496H454.882L453.782 160.574V166.47L454.882 167.548H459.106ZM465.031 153.292H466.659V169H465.031V153.292ZM469.967 166.976V158.044H471.595V166.47L472.695 167.548H474.895L477.623 164.82V158.044H479.251V169H477.667V166.668L475.335 169H471.991L469.967 166.976ZM483.549 166.976V159.474H481.569V158.044H483.593V154.48H485.177V158.044H488.609V159.474H485.177V166.47L486.277 167.57H488.609V169H485.573L483.549 166.976ZM491.021 155.536V154.568L491.681 153.908H492.649L493.309 154.568V155.536L492.649 156.196H491.681L491.021 155.536ZM491.351 158.044H492.979V169H491.351V158.044ZM496.283 166.976V160.068L498.307 158.044H503.939L505.963 160.068V166.976L503.939 169H498.307L496.283 166.976ZM503.235 167.548L504.335 166.47V160.574L503.235 159.496H499.011L497.911 160.574V166.47L499.011 167.548H503.235ZM509.049 158.044H510.633V160.376L512.965 158.044H516.331L518.355 160.068V169H516.727V160.574L515.627 159.496H513.405L510.677 162.224V169H509.049V158.044ZM526.704 166.976V160.068L528.728 158.044H534.36L536.384 160.068V166.976L534.36 169H528.728L526.704 166.976ZM533.656 167.548L534.756 166.47V160.574L533.656 159.496H529.432L528.332 160.574V166.47L529.432 167.548H533.656ZM540.461 159.474H538.481V158.044H540.461V155.602L542.375 153.688H545.543V155.096H543.079L542.089 156.064V158.044H545.543V159.474H542.089V169H540.461V159.474ZM552.894 153.6H555.578L562.442 164.05H562.486V153.6H565.368V169H562.684L555.82 158.572H555.776V169H552.894V153.6ZM568.234 166.976V160.068L570.258 158.044H575.78L577.826 160.068V164.006H569.862V166.47L570.962 167.548H575.076L576.176 166.47V165.634H577.804V166.976L575.78 169H570.258L568.234 166.976ZM576.198 162.598V160.574L575.098 159.496H570.962L569.862 160.574V162.598H576.198ZM580.676 166.976V158.044H582.304V166.47L583.404 167.548H585.604L588.332 164.82V158.044H589.96V169H588.376V166.668L586.044 169H582.7L580.676 166.976ZM593.268 158.044H594.852V160.002L596.81 158.044H599.648V159.496H597.228L594.896 161.828V169H593.268V158.044ZM600.844 167.196V164.402L602.648 162.62H608.5V160.53L607.4 159.452H603.66L602.56 160.53V161.432H600.932V160.068L602.956 158.044H608.082L610.106 160.068V169H608.544V167.064L606.52 169H602.648L600.844 167.196ZM606.19 167.592L608.5 165.37V164.028H603.352L602.472 164.886V166.734L603.352 167.592H606.19ZM613.402 153.292H615.03V169H613.402V153.292ZM627.097 156.13H622.499V153.6H634.687V156.13H630.089V169H627.097V156.13ZM636.667 158.044H638.251V160.002L640.209 158.044H643.047V159.496H640.627L638.295 161.828V169H636.667V158.044ZM644.243 167.196V164.402L646.047 162.62H651.899V160.53L650.799 159.452H647.059L645.959 160.53V161.432H644.331V160.068L646.355 158.044H651.481L653.505 160.068V169H651.943V167.064L649.919 169H646.047L644.243 167.196ZM649.589 167.592L651.899 165.37V164.028H646.751L645.871 164.886V166.734L646.751 167.592H649.589ZM656.69 158.044H658.274V160.376L660.606 158.044H663.972L665.996 160.068V169H664.368V160.574L663.268 159.496H661.046L658.318 162.224V169H656.69V158.044ZM668.644 167.196V165.832H670.272V166.734L671.152 167.592H675.2L676.08 166.734V165.04L675.2 164.16H670.47L668.732 162.422V159.848L670.536 158.044H675.684L677.488 159.848V161.212H675.86V160.31L674.98 159.452H671.24L670.36 160.31V161.916L671.24 162.796H675.904L677.708 164.6V167.196L675.904 169H670.448L668.644 167.196ZM681.442 159.474H679.462V158.044H681.442V155.602L683.356 153.688H686.524V155.096H684.06L683.07 156.064V158.044H686.524V159.474H683.07V169H681.442V159.474ZM688.074 166.976V160.068L690.098 158.044H695.73L697.754 160.068V166.976L695.73 169H690.098L688.074 166.976ZM695.026 167.548L696.126 166.47V160.574L695.026 159.496H690.802L689.702 160.574V166.47L690.802 167.548H695.026ZM700.84 158.044H702.424V160.002L704.382 158.044H707.22V159.496H704.8L702.468 161.828V169H700.84V158.044ZM709.305 158.044H710.889V160.156L713.001 158.044H715.619L717.335 159.76L719.051 158.044H722.505L724.529 160.068V169H722.901V160.574L721.801 159.496H719.381L717.841 161.036V169H716.257V160.574L715.157 159.496H713.309L710.933 161.872V169H709.305V158.044ZM727.387 167.196V164.402L729.191 162.62H735.043V160.53L733.943 159.452H730.203L729.103 160.53V161.432H727.475V160.068L729.499 158.044H734.625L736.649 160.068V169H735.087V167.064L733.063 169H729.191L727.387 167.196ZM732.733 167.592L735.043 165.37V164.028H729.895L729.015 164.886V166.734L729.895 167.592H732.733ZM740.61 166.976V159.474H738.63V158.044H740.654V154.48H742.238V158.044H745.67V159.474H742.238V166.47L743.338 167.57H745.67V169H742.634L740.61 166.976ZM748.082 155.536V154.568L748.742 153.908H749.71L750.37 154.568V155.536L749.71 156.196H748.742L748.082 155.536ZM748.412 158.044H750.04V169H748.412V158.044ZM753.343 166.976V160.068L755.367 158.044H760.999L763.023 160.068V166.976L760.999 169H755.367L753.343 166.976ZM760.295 167.548L761.395 166.47V160.574L760.295 159.496H756.071L754.971 160.574V166.47L756.071 167.548H760.295ZM766.11 158.044H767.694V160.376L770.026 158.044H773.392L775.416 160.068V169H773.788V160.574L772.688 159.496H770.466L767.738 162.224V169H766.11V158.044Z" fill="#231F20"/>
<path d="M419.459 57.5063C418.913 56.2489 418.156 55.1172 417.19 54.1113C416.223 53.1473 415.047 52.3509 413.744 51.806C412.399 51.2192 410.971 50.9677 409.416 50.9677H341.05V72.302H398.659V98.8336H331.301C328.528 98.8336 326.385 98.0792 324.83 96.6122C323.317 95.1033 322.561 93.0076 322.561 90.2831V33.1543C322.561 30.2622 323.317 28.1246 324.788 26.6576C326.301 25.1906 328.444 24.4781 331.301 24.4781H419.291V16.3886C419.291 16.3886 419.291 16.3048 419.291 16.2629V3.26953H331.301C327.561 3.26953 324.242 3.73059 321.301 4.6527C318.359 5.57481 315.754 6.79031 313.527 8.34113C311.3 9.89195 309.367 11.6523 307.728 13.6642C306.131 15.6761 304.829 17.7718 303.82 19.9932C302.812 22.1728 302.097 24.4361 301.593 26.6576C301.131 28.9209 300.879 31.0166 300.879 32.9866V90.2831C300.879 93.9297 301.341 97.199 302.308 100.091C303.232 102.983 304.535 105.54 306.089 107.761C307.686 109.941 309.493 111.827 311.552 113.378C313.611 114.929 315.754 116.186 318.023 117.15C320.25 118.114 322.561 118.827 324.83 119.288C327.141 119.749 329.284 119.958 331.301 119.958H409.416C410.971 119.958 412.399 119.707 413.744 119.162C415.089 118.617 416.223 117.863 417.19 116.94C418.156 115.976 418.913 114.845 419.459 113.545C420.005 112.246 420.299 110.821 420.299 109.312V61.6139C420.299 60.1469 420.005 58.7638 419.459 57.5063Z" fill="#792A85"/>
<path d="M813.731 3.26953H788.645H765.03H713.429V24.4361H730.321H761.248V78.3796H761.164V120H782.888V78.3796V24.4361H788.645H830.58V3.26953H813.731Z" fill="#792A85"/>
<path d="M528.122 50.9678H472.572V72.302H540.938V51.0516H529.425C529.004 51.0097 528.584 50.9678 528.122 50.9678Z" fill="#792A85"/>
<path d="M533.752 3.26953H453.159C451.604 3.26953 450.175 3.56293 448.83 4.0659C447.486 4.61078 446.351 5.36523 445.385 6.32926C444.418 7.29328 443.662 8.46688 443.116 9.76621C442.57 11.0655 442.275 12.4487 442.275 13.9157V90.2831C442.275 95.7739 443.284 100.384 445.301 104.157C447.318 107.929 449.839 110.989 452.864 113.336C455.89 115.683 459.167 117.402 462.739 118.407C466.311 119.455 469.546 119.958 472.572 119.958H550.686V98.7917H472.74C469.84 98.7917 467.655 98.0792 466.143 96.6122C464.63 95.1452 463.916 93.0495 463.916 90.2412V24.4361H550.686V3.26953H533.752Z" fill="#792A85"/>
<path d="M670.149 3.2693V83.8701L591.068 3.18547C589.513 1.59273 587.664 0.628711 585.479 0.20957C583.294 -0.20957 581.193 0 579.134 0.838282C577.201 1.71848 575.605 3.01781 574.344 4.7782C573.083 6.5386 572.453 8.50856 572.453 10.6881V85.5466C572.453 87.1813 572.453 88.8159 572.453 90.4506V105.162C572.453 109.312 572.453 113.461 572.453 117.611V120.042H594.093V36.1299L673.175 116.898C674.225 117.988 675.444 118.784 676.788 119.246C678.133 119.749 679.478 119.958 680.822 119.958C682.335 119.958 683.722 119.665 685.066 119.162C686.411 118.617 687.545 117.862 688.512 116.94C689.478 115.976 690.277 114.845 690.823 113.545C691.411 112.246 691.705 110.821 691.705 109.312V3.2693H670.065H670.149Z" fill="#792A85"/>
<defs>
<linearGradient id="paint0_linear_1566_391" x1="-11.388" y1="175.41" x2="222.976" y2="-6.14598" gradientUnits="userSpaceOnUse">
<stop stop-color="#674220"/>
<stop offset="0.08" stop-color="#A77C2F"/>
<stop offset="0.25" stop-color="#D3B160"/>
<stop offset="0.31" stop-color="#D5B462"/>
<stop offset="0.35" stop-color="#DBBD69"/>
<stop offset="0.39" stop-color="#E6CE76"/>
<stop offset="0.42" stop-color="#F8E88A"/>
<stop offset="0.51" stop-color="#AE7936"/>
<stop offset="0.64" stop-color="#EABE69"/>
<stop offset="0.84" stop-color="#8D5924"/>
<stop offset="1" stop-color="#DFA54D"/>
</linearGradient>
</defs>
</svg>
