<?xml version="1.0" encoding="UTF-8"?>
<svg id="Layer_2" data-name="Layer 2" xmlns="http://www.w3.org/2000/svg" xmlns:xlink="http://www.w3.org/1999/xlink" viewBox="0 0 3319.99 1764.36">
  <defs>
    <style>
      .cls-1 {
        fill: url(#linear-gradient);
      }
    </style>
    <linearGradient id="linear-gradient" x1="-173.48" y1="2578.68" x2="3269.7" y2="-81.71" gradientUnits="userSpaceOnUse">
      <stop offset="0" stop-color="#674220"/>
      <stop offset=".08" stop-color="#a77c2f"/>
      <stop offset=".25" stop-color="#d3b160"/>
      <stop offset=".31" stop-color="#d5b462"/>
      <stop offset=".35" stop-color="#dbbd69"/>
      <stop offset=".39" stop-color="#e6ce76"/>
      <stop offset=".42" stop-color="#f6e587"/>
      <stop offset=".42" stop-color="#f8e88a"/>
      <stop offset=".51" stop-color="#ae7936"/>
      <stop offset=".64" stop-color="#eabe69"/>
      <stop offset=".84" stop-color="#8d5924"/>
      <stop offset="1" stop-color="#dfa54d"/>
    </linearGradient>
  </defs>
  <g id="Layer_1-2" data-name="Layer 1">
    <path class="cls-1" d="M3319.26,942.78v73.77c1.15-38.61.77-58.78,0-73.77ZM1522.37,1375.58s-46.68-13.64-96.82-28.24c-79.72-23.24-142.15-84.14-165.88-162.04-14.89-48.89-28.91-94.51-28.91-94.51-.96-3.36-4.04-5.57-7.59-5.57s-6.53,2.21-7.59,5.57c0,0-13.93,45.62-28.81,94.51-23.82,77.89-86.16,138.79-165.88,162.04-50.14,14.6-96.82,28.24-96.82,28.24-3.36.96-5.67,3.94-5.67,7.4s2.31,6.43,5.67,7.4c0,0,46.68,13.64,96.82,28.24,79.72,23.15,142.06,84.14,165.88,162.04,14.89,48.89,28.81,94.51,28.81,94.51,1.06,3.26,4.13,5.57,7.59,5.57s6.63-2.31,7.59-5.57c0,0,14.02-45.62,28.91-94.51,23.73-77.9,86.16-138.89,165.88-162.04,50.14-14.6,96.82-28.24,96.82-28.24,3.36-.96,5.67-4.03,5.67-7.4s-2.31-6.43-5.67-7.4ZM3188.54,520.16c-41.68-11.24-146.96-13.45-198.05-8.36-.87.1-1.73.19-2.59.29-34.77,4.13-61.66,33.62-61.76,69.54v.19l-.57,119.97-1.73,385.06-.1,17.09v13.64c-1.82,29.96-1.25,86.35-12.48,111.13-19.79,43.8-45.43,77.51-78.76,85.97h-.09c-8.84,2.79-126.21,2.97-181.44,3.65l-237.72-.19c-5.86.09-11.62.09-17.48,0-110.94-1.35-216.59-70.5-296.12-178.46l-22.76-35.73L1414.22,68.73C1350.92-6.19,1246.03-4.17,1164.3,3.7c-40.34,3.84-75.21,13.35-109.5,41.01-155.7,208.43-296.51,437.41-443.08,657.07C409.16,1005.4,201.69,1305.17,5.27,1614.45c-19.59,75.01,17.39,136.87,78.86,143.5,73.19,7.87,211.6,7.78,284.79,0,26.32-2.79,54.46-13.83,74.92-34.87l760.9-1144.52c17.67-16.52,35.25-4.8,47.16,14.79,191.04,274.51,358.74,597.14,553.24,865.41,128.03,176.44,304,285.84,495.9,299.19,119.68,8.35,398.51,8.74,517.99,0,156.46-11.34,292.28-105.95,382.08-248.67,65.7-104.41,106.9-234.74,113.63-377.19,2.4-51.1,3.84-87.98,4.51-115.55v-296.51c-2.88-94.22-55.52-179.71-130.72-199.88Z"/>
  </g>
</svg>
